<svg width="226" height="70" viewBox="0 0 226 70" fill="none" xmlns="http://www.w3.org/2000/svg">
<path d="M37.736 31.656H44.408V35.736H44.744C45.096 34.84 45.832 33.832 46.952 32.712C48.072 31.592 49.704 31.032 51.848 31.032C53.512 31.032 54.904 31.416 56.024 32.184C57.144 32.952 57.96 33.768 58.472 34.632C59.016 35.464 59.336 36.072 59.432 36.456H59.768C60.152 35.432 60.952 34.28 62.168 33C63.384 31.688 65.256 31.032 67.784 31.032C69.992 31.032 71.736 31.608 73.016 32.76C74.328 33.88 75.24 35.24 75.752 36.84C76.296 38.408 76.568 39.928 76.568 41.4V57H69.896V42.072C69.896 40.344 69.448 39.032 68.552 38.136C67.656 37.24 66.568 36.792 65.288 36.792C63.976 36.792 62.84 37.256 61.88 38.184C60.952 39.112 60.488 40.408 60.488 42.072V57H53.816V42.072C53.816 40.344 53.368 39.032 52.472 38.136C51.576 37.24 50.488 36.792 49.208 36.792C47.896 36.792 46.76 37.256 45.8 38.184C44.872 39.112 44.408 40.408 44.408 42.072V57H37.736V31.656ZM90.962 57.384C87.826 57.384 85.378 56.184 83.618 53.784C81.858 51.384 80.978 48.216 80.978 44.28C80.978 40.28 81.858 37.08 83.618 34.68C85.41 32.248 87.906 31.032 91.106 31.032C93.25 31.032 94.93 31.528 96.146 32.52C97.362 33.48 98.226 34.504 98.738 35.592H99.122V31.656H105.794V57H99.122V52.632H98.738C98.162 53.816 97.266 54.904 96.05 55.896C94.834 56.888 93.138 57.384 90.962 57.384ZM93.41 52.008C95.298 52.008 96.722 51.24 97.682 49.704C98.642 48.168 99.122 46.328 99.122 44.184C99.122 42.04 98.642 40.216 97.682 38.712C96.754 37.208 95.33 36.456 93.41 36.456C91.49 36.456 90.066 37.208 89.138 38.712C88.21 40.216 87.746 42.04 87.746 44.184C87.746 46.36 88.21 48.216 89.138 49.752C90.066 51.256 91.49 52.008 93.41 52.008ZM111.611 31.656H118.331V35.544H118.667C119.243 34.296 120.171 33.24 121.451 32.376C122.731 31.48 124.283 31.032 126.107 31.032C129.403 31.032 131.723 32.088 133.067 34.2C134.443 36.312 135.131 38.712 135.131 41.4V57H128.507V42.504C128.507 40.648 128.059 39.192 127.163 38.136C126.299 37.08 125.067 36.552 123.467 36.552C121.771 36.552 120.491 37.112 119.627 38.232C118.763 39.32 118.331 40.744 118.331 42.504V57H111.611V31.656ZM149.509 57.384C146.373 57.384 143.925 56.184 142.165 53.784C140.405 51.384 139.525 48.216 139.525 44.28C139.525 40.28 140.405 37.08 142.165 34.68C143.957 32.248 146.453 31.032 149.653 31.032C151.797 31.032 153.477 31.528 154.693 32.52C155.909 33.48 156.773 34.504 157.285 35.592H157.669V31.656H164.341V57H157.669V52.632H157.285C156.709 53.816 155.813 54.904 154.597 55.896C153.381 56.888 151.685 57.384 149.509 57.384ZM151.957 52.008C153.845 52.008 155.269 51.24 156.229 49.704C157.189 48.168 157.669 46.328 157.669 44.184C157.669 42.04 157.189 40.216 156.229 38.712C155.301 37.208 153.877 36.456 151.957 36.456C150.037 36.456 148.613 37.208 147.685 38.712C146.757 40.216 146.293 42.04 146.293 44.184C146.293 46.36 146.757 48.216 147.685 49.752C148.613 51.256 150.037 52.008 151.957 52.008ZM182.443 67.656C181.259 67.656 180.363 67.576 179.755 67.416C179.147 67.288 178.539 67.112 177.931 66.888V61.56C178.251 61.656 178.763 61.752 179.467 61.848C180.203 61.976 180.907 62.04 181.579 62.04C183.819 62.04 185.387 61.4 186.283 60.12C187.211 58.872 187.675 57.304 187.675 55.416V52.056H187.291C186.779 53.208 185.883 54.28 184.603 55.272C183.323 56.264 181.627 56.76 179.515 56.76C177.467 56.76 175.691 56.232 174.187 55.176C172.683 54.088 171.531 52.584 170.73 50.664C169.931 48.712 169.531 46.472 169.531 43.944C169.531 41.352 169.931 39.096 170.73 37.176C171.531 35.224 172.683 33.72 174.187 32.664C175.723 31.576 177.515 31.032 179.562 31.032C181.707 31.032 183.419 31.56 184.699 32.616C185.979 33.64 186.843 34.728 187.291 35.88H187.675V31.656H194.347V55.416C194.347 57.048 194.043 58.776 193.435 60.6C192.859 62.456 191.691 64.088 189.931 65.496C188.171 66.936 185.675 67.656 182.443 67.656ZM182.011 51.384C183.867 51.384 185.275 50.632 186.235 49.128C187.195 47.624 187.675 45.864 187.675 43.848C187.675 41.864 187.195 40.136 186.235 38.664C185.307 37.16 183.899 36.408 182.011 36.408C180.123 36.408 178.699 37.16 177.739 38.664C176.779 40.136 176.299 41.864 176.299 43.848C176.299 45.864 176.763 47.624 177.691 49.128C178.651 50.632 180.091 51.384 182.011 51.384ZM211.767 57.384C209.111 57.384 206.871 56.776 205.047 55.56C203.223 54.312 201.863 52.696 200.967 50.712C200.103 48.696 199.671 46.536 199.671 44.232C199.671 41.928 200.103 39.784 200.967 37.8C201.863 35.784 203.223 34.152 205.047 32.904C206.871 31.656 209.127 31.032 211.815 31.032C215.367 31.032 218.183 32.168 220.263 34.44C222.375 36.712 223.431 39.992 223.431 44.28V46.104H206.055V46.488C206.055 48.024 206.583 49.352 207.639 50.472C208.695 51.56 210.023 52.104 211.623 52.104C212.871 52.104 213.927 51.816 214.791 51.24C215.655 50.664 216.279 49.88 216.663 48.888H223.191C222.519 51.384 221.207 53.432 219.255 55.032C217.303 56.6 214.807 57.384 211.767 57.384ZM217.047 41.784C216.983 39.768 216.471 38.28 215.511 37.32C214.551 36.36 213.287 35.88 211.719 35.88C210.055 35.88 208.743 36.408 207.783 37.464C206.823 38.52 206.311 39.96 206.247 41.784H217.047Z" fill="white"/>
<circle cx="5" cy="39" r="5" fill="#F2DFC4"/>
<circle cx="22" cy="54" r="5" fill="#F2DFC4" fill-opacity="0.5"/>
<circle cx="22" cy="39" r="5" fill="#F2DFCE"/>
<circle cx="5" cy="54" r="5" fill="#F2DFC4"/>
</svg>
